<svg xmlns="http://www.w3.org/2000/svg" viewBox="0 0 160 440" fill="none">
  <!-- Skateboard deck silhouette -->
  <defs>
    <linearGradient id="wood" x1="0" y1="0" x2="0" y2="1">
      <stop offset="0%" stop-color="#3a2a1a"/>
      <stop offset="35%" stop-color="#1a120c"/>
      <stop offset="65%" stop-color="#241810"/>
      <stop offset="100%" stop-color="#3a2a1a"/>
    </linearGradient>
    <linearGradient id="edge" x1="0" y1="0" x2="1" y2="0">
      <stop offset="0%" stop-color="#000" stop-opacity="0.55"/>
      <stop offset="45%" stop-color="#000" stop-opacity="0"/>
      <stop offset="55%" stop-color="#000" stop-opacity="0"/>
      <stop offset="100%" stop-color="#000" stop-opacity="0.55"/>
    </linearGradient>
  </defs>
  <path
    d="M80 8
       C118 8 142 28 146 70
       L150 200
       C152 250 152 300 150 340
       L146 370
       C142 412 118 432 80 432
       C42 432 18 412 14 370
       L10 340
       C8 300 8 250 10 200
       L14 70
       C18 28 42 8 80 8 Z"
    fill="url(#wood)"
    stroke="rgba(255,255,255,0.18)"
    stroke-width="2"
  />
  <path
    d="M80 8
       C118 8 142 28 146 70
       L150 200
       C152 250 152 300 150 340
       L146 370
       C142 412 118 432 80 432
       C42 432 18 412 14 370
       L10 340
       C8 300 8 250 10 200
       L14 70
       C18 28 42 8 80 8 Z"
    fill="url(#edge)"
  />
  <!-- Truck bolt holes -->
  <circle cx="52" cy="92" r="5" fill="#0a0a0a" stroke="rgba(255,255,255,0.25)" stroke-width="1"/>
  <circle cx="108" cy="92" r="5" fill="#0a0a0a" stroke="rgba(255,255,255,0.25)" stroke-width="1"/>
  <circle cx="52" cy="348" r="5" fill="#0a0a0a" stroke="rgba(255,255,255,0.25)" stroke-width="1"/>
  <circle cx="108" cy="348" r="5" fill="#0a0a0a" stroke="rgba(255,255,255,0.25)" stroke-width="1"/>
</svg>
